<?xml version="1.0" encoding="UTF-8" standalone="no"?>
<!DOCTYPE svg PUBLIC "-//W3C//DTD SVG 1.1//EN" "http://www.w3.org/Graphics/SVG/1.1/DTD/svg11.dtd">
<svg version="1.1" xmlns="http://www.w3.org/2000/svg" xmlns:xlink="http://www.w3.org/1999/xlink" preserveAspectRatio="xMidYMid meet" viewBox="21.7681784149784 21.40155759815516 23.6037400382461 23.870904445921322" width="19.6" height="19.87"><defs><path d="M35.36 22.43L35.45 22.45L35.52 22.49L35.6 22.53L35.67 22.57L35.73 22.63L35.79 22.69L35.84 22.76L35.89 22.83L35.93 22.91L35.96 22.99L35.98 23.08L35.99 23.16L36.03 23.73L36.09 23.73L36.15 23.74L36.2 23.74L36.26 23.75L36.32 23.75L36.37 23.76L36.43 23.77L36.48 23.78L36.53 23.79L36.59 23.8L36.64 23.81L36.69 23.82L36.75 23.83L36.8 23.85L36.85 23.86L37.11 23.26L37.15 23.18L37.19 23.11L37.25 23.04L37.31 22.98L37.37 22.92L37.44 22.88L37.52 22.84L37.6 22.8L37.68 22.78L37.76 22.77L37.85 22.76L37.93 22.76L38.02 22.77L38.11 22.8L38.19 22.83L38.27 22.87L38.35 22.91L38.42 22.97L38.48 23.03L38.53 23.1L38.58 23.17L38.62 23.24L38.65 23.32L38.67 23.4L38.69 23.49L38.69 23.57L38.69 23.66L38.68 23.74L38.66 23.83L38.63 23.91L38.31 24.66L38.47 24.8L38.62 24.95L38.76 25.11L38.89 25.27L39.02 25.43L39.13 25.6L39.24 25.77L39.34 25.94L39.43 26.11L39.52 26.28L39.6 26.45L39.67 26.62L39.73 26.78L39.78 26.94L39.83 27.1L42.02 28.64L42.07 28.68L42.11 28.71L42.15 28.76L42.19 28.8L42.23 28.85L42.26 28.9L42.29 28.95L42.31 29L42.33 29.06L42.35 29.11L42.36 29.17L42.37 29.23L42.37 29.28L42.37 29.34L42.37 29.4L42.36 29.46L42.35 29.52L42.33 29.58L42.31 29.63L42.29 29.69L42.26 29.74L42.23 29.79L42.19 29.83L42.16 29.88L42.11 29.92L42.07 29.96L42.02 29.99L41.98 30.02L41.92 30.05L41.87 30.08L39.85 30.94L39.64 31.96L39.4 32.9L39.13 33.77L38.83 34.56L38.51 35.29L38.17 35.96L37.8 36.56L37.42 37.1L37.02 37.58L36.61 38.01L36.18 38.39L35.75 38.72L35.32 39.01L34.87 39.25L34.43 39.45L34.43 41.44L34.42 41.53L34.41 41.62L34.39 41.71L34.36 41.79L34.32 41.86L34.27 41.93L34.22 42L34.16 42.06L34.09 42.11L34.02 42.16L33.94 42.2L33.86 42.23L33.78 42.25L33.69 42.27L33.6 42.27L33.51 42.27L33.42 42.25L33.34 42.23L33.26 42.2L33.18 42.16L33.11 42.11L33.05 42.06L32.99 42L32.93 41.93L32.89 41.86L32.85 41.79L32.82 41.71L32.79 41.62L32.78 41.53L32.77 41.44L32.77 39.92L32.75 39.92L32.66 39.93L32.64 39.94L32.62 39.94L32.6 39.94L32.57 39.95L32.55 39.95L32.53 39.95L32.51 39.96L32.49 39.96L32.46 39.96L32.44 39.96L32.39 39.97L32.34 39.98L32.29 39.98L32.24 39.98L32.18 39.99L32.13 39.99L32.08 40L32.03 40L31.98 40L31.92 40L31.87 40L31.82 40.01L31.77 40.01L31.72 40.01L31.66 40.01L31.58 40.01L31.49 40L31.41 40L31.33 40L31.24 39.99L31.16 39.99L31.07 39.98L30.99 39.97L30.9 39.96L30.82 39.95L30.74 39.94L30.65 39.92L30.57 39.91L30.49 39.9L30.4 39.88L30.4 41.44L30.4 41.53L30.38 41.62L30.36 41.71L30.33 41.79L30.29 41.86L30.24 41.93L30.19 42L30.13 42.06L30.06 42.11L29.99 42.16L29.92 42.2L29.84 42.23L29.75 42.25L29.66 42.27L29.57 42.27L29.48 42.27L29.4 42.25L29.31 42.23L29.23 42.2L29.16 42.16L29.09 42.11L29.02 42.06L28.96 42L28.91 41.93L28.86 41.86L28.82 41.79L28.79 41.71L28.77 41.62L28.75 41.53L28.75 41.44L28.75 39.39L28.5 39.28L28.25 39.16L28 39.03L27.77 38.89L27.53 38.74L27.3 38.59L27.07 38.42L26.85 38.25L26.64 38.07L26.43 37.88L26.23 37.69L26.03 37.48L25.84 37.27L25.65 37.05L25.48 36.82L25.3 36.54L25.12 36.25L24.94 35.96L24.76 35.66L24.59 35.37L24.42 35.09L24.25 34.8L24.09 34.52L23.94 34.24L23.8 33.97L23.67 33.71L23.55 33.46L23.43 33.21L23.34 32.98L23.25 32.75L23.2 32.64L23.14 32.49L23.06 32.29L22.99 32.05L22.91 31.77L22.85 31.47L22.8 31.13L22.77 30.77L22.77 30.38L22.8 29.98L22.87 29.56L22.98 29.13L23.14 28.69L23.36 28.25L23.64 27.8L23.76 27.65L23.87 27.5L23.99 27.37L24.11 27.26L24.22 27.15L24.34 27.06L24.46 26.98L24.58 26.91L24.7 26.85L24.83 26.81L24.95 26.78L25.07 26.76L25.2 26.75L25.32 26.76L25.45 26.78L25.56 26.8L25.66 26.83L25.76 26.88L25.85 26.92L25.94 26.98L26.03 27.05L26.12 27.12L26.2 27.21L26.27 27.3L26.35 27.4L26.42 27.5L26.49 27.62L26.55 27.74L26.61 27.87L26.67 28.01L26.73 27.99L26.8 27.98L26.86 27.96L26.93 27.95L26.99 27.94L27.06 27.94L27.13 27.93L27.19 27.93L27.26 27.93L27.33 27.93L27.4 27.94L27.46 27.94L27.53 27.95L27.6 27.97L27.66 27.98L27.78 28.01L27.89 28.04L28 28.09L28.1 28.13L28.21 28.19L28.31 28.25L28.4 28.31L28.49 28.38L28.58 28.46L28.66 28.54L28.74 28.62L28.81 28.71L28.88 28.81L28.94 28.91L29 29.01L29.4 29.79L29.54 29.86L29.67 29.92L29.79 29.97L29.91 30L30.02 30.02L30.12 30.03L30.22 30.02L30.31 30.01L30.4 29.99L30.48 29.96L30.56 29.92L30.64 29.87L30.71 29.83L30.78 29.78L30.85 29.72L30.92 29.66L30.98 29.59L31.04 29.52L31.1 29.44L31.16 29.36L31.2 29.27L31.25 29.19L31.29 29.1L31.32 29L31.35 28.91L31.37 28.81L31.39 28.71L31.4 28.6L31.41 28.5L31.42 28.39L31.42 28.14L31.44 27.9L31.46 27.66L31.49 27.43L31.53 27.21L31.57 26.99L31.63 26.78L31.69 26.57L31.76 26.37L31.83 26.18L31.92 25.99L32.01 25.81L32.11 25.64L32.21 25.47L32.33 25.31L31.95 24.63L31.91 24.54L31.88 24.46L31.86 24.38L31.85 24.29L31.85 24.21L31.86 24.12L31.87 24.04L31.9 23.96L31.93 23.88L31.97 23.8L32.02 23.73L32.07 23.67L32.13 23.6L32.2 23.55L32.28 23.5L32.36 23.46L32.45 23.43L32.53 23.41L32.62 23.4L32.7 23.4L32.79 23.41L32.87 23.42L32.95 23.45L33.03 23.48L33.1 23.52L33.18 23.57L33.24 23.62L33.3 23.68L33.36 23.75L33.4 23.83L33.62 24.23L33.67 24.21L33.72 24.18L33.77 24.16L33.82 24.14L33.87 24.11L33.92 24.09L33.97 24.07L34.02 24.05L34.07 24.03L34.12 24.01L34.17 24L34.22 23.98L34.28 23.96L34.33 23.94L34.39 23.93L34.34 23.29L34.33 23.2L34.34 23.11L34.36 23.03L34.38 22.95L34.42 22.87L34.46 22.79L34.51 22.72L34.56 22.66L34.62 22.6L34.69 22.55L34.76 22.5L34.84 22.47L34.92 22.44L35.01 22.41L35.1 22.4L35.19 22.4L35.28 22.41L35.36 22.43ZM34.64 25.57L34.21 25.79L33.86 26.07L33.59 26.41L33.38 26.78L33.24 27.17L33.14 27.58L33.09 28L33.07 28.4L33.06 28.73L33.01 29.06L32.94 29.38L32.83 29.69L32.7 29.98L32.55 30.26L32.36 30.52L32.15 30.76L31.92 30.98L31.56 31.25L31.18 31.46L30.79 31.59L30.38 31.67L29.97 31.67L29.55 31.61L29.13 31.49L28.71 31.29L28.29 31.04L28.25 31.01L28.22 30.98L28.18 30.95L28.15 30.92L28.12 30.89L28.1 30.85L28.07 30.81L28.05 30.78L28.03 30.74L27.53 29.77L27.51 29.73L27.48 29.7L27.46 29.67L27.43 29.65L27.4 29.63L27.37 29.62L27.35 29.61L27.32 29.6L27.3 29.6L27.28 29.59L27.26 29.59L27.23 29.59L27.2 29.59L27.17 29.59L27.13 29.6L27.1 29.61L27.06 29.63L27.02 29.66L26.92 29.73L26.81 29.79L26.7 29.83L26.58 29.87L26.46 29.89L26.33 29.89L26.21 29.88L26.09 29.86L25.96 29.83L25.85 29.78L25.74 29.72L25.64 29.65L25.55 29.56L25.47 29.47L25.39 29.37L25.33 29.26L25.29 29.15L25.25 29.03L25.24 28.97L25.22 28.91L25.21 28.86L25.19 28.81L25.18 28.76L25.16 28.71L25.15 28.67L25.13 28.63L25.12 28.59L25.11 28.61L25.1 28.62L25.08 28.64L25.07 28.66L25.06 28.68L25.04 28.69L25.03 28.71L25.01 28.73L25 28.76L24.7 29.28L24.52 29.8L24.43 30.29L24.43 30.75L24.47 31.16L24.55 31.51L24.64 31.78L24.71 31.97L24.75 32.05L24.76 32.06L24.76 32.07L24.77 32.08L24.77 32.1L24.78 32.11L24.79 32.12L24.79 32.14L24.8 32.15L24.8 32.16L24.94 32.52L25.13 32.93L25.35 33.36L25.6 33.82L25.86 34.27L26.13 34.72L26.38 35.15L26.63 35.54L26.84 35.89L27.3 36.43L27.8 36.91L28.36 37.33L28.95 37.68L29.57 37.96L30.23 38.17L30.89 38.3L31.58 38.35L32.26 38.32L33.28 38.11L34.22 37.73L35.06 37.18L35.82 36.45L36.49 35.55L37.08 34.47L37.57 33.23L37.97 31.81L38.29 30.23L38.31 30.13L38.34 30.05L38.38 29.96L38.43 29.88L38.48 29.81L38.55 29.75L38.62 29.69L38.7 29.64L38.78 29.6L39.85 29.14L38.63 28.28L38.57 28.24L38.52 28.19L38.48 28.14L38.43 28.09L38.4 28.03L38.36 27.97L38.33 27.9L38.31 27.84L38.29 27.77L38.25 27.6L38.16 27.31L38 26.94L37.77 26.53L37.45 26.13L37.04 25.77L36.53 25.51L35.91 25.38L35.16 25.43L34.64 25.57ZM34.26 31.51L34.59 31.89L34.84 32.32L35.01 32.79L35.09 33.29L35.09 33.8L34.99 34.33L34.8 34.84L34.52 35.3L34.17 35.7L33.75 36.05L33.25 36.35L32.75 36.58L32.25 36.75L31.75 36.85L31.25 36.88L31.05 36.87L30.86 36.86L30.66 36.83L30.47 36.8L30.27 36.75L29.01 36.19L28 35.37L27.25 34.5L26.78 33.8L26.6 33.47L26.52 33.22L26.52 32.96L26.6 32.72L26.75 32.51L26.96 32.36L27.21 32.28L27.47 32.28L27.71 32.36L27.92 32.51L28.07 32.72L28.2 32.94L28.55 33.47L29.1 34.13L29.82 34.74L30.7 35.15L31.11 35.22L31.53 35.2L31.95 35.11L32.38 34.93L32.82 34.67L33.02 34.52L33.18 34.33L33.3 34.12L33.39 33.89L33.44 33.64L33.44 33.49L33.43 33.31L33.37 33.11L33.27 32.89L33.1 32.69L32.94 32.47L32.87 32.23L32.86 31.98L32.94 31.73L33.09 31.52L33.31 31.36L33.55 31.28L33.8 31.28L34.05 31.35L34.26 31.51ZM35.98 26.68L36.05 26.72L36.12 26.76L36.19 26.81L36.25 26.86L36.35 26.99L36.43 27.13L36.47 27.28L36.49 27.44L36.48 27.52L36.47 27.6L36.45 27.69L36.43 27.77L36.39 27.84L36.35 27.91L36.3 27.97L36.25 28.03L36.12 28.13L35.97 28.21L35.82 28.26L35.66 28.27L35.5 28.26L35.34 28.21L35.2 28.13L35.08 28.03L34.97 27.9L34.9 27.76L34.85 27.61L34.83 27.44L34.85 27.28L34.9 27.13L34.97 26.99L35.08 26.86L35.14 26.81L35.2 26.76L35.27 26.72L35.34 26.68L35.5 26.63L35.66 26.62L35.82 26.63L35.98 26.68Z" id="g3rsPMcOXk"></path></defs><g><g><use xlink:href="#g3rsPMcOXk" opacity="1" fill="#ffffff" fill-opacity="1"></use><g><use xlink:href="#g3rsPMcOXk" opacity="1" fill-opacity="0" stroke="#000000" stroke-width="1" stroke-opacity="0"></use></g></g></g></svg>