<svg height='100px' width='100px'  fill="#FF8400" xmlns="http://www.w3.org/2000/svg" xmlns:xlink="http://www.w3.org/1999/xlink" version="1.1" x="0px" y="0px" viewBox="0 0 100 100" style="enable-background:new 0 0 100 100;" xml:space="preserve"><style type="text/css">
	.st0{fill:#FF8400;}
</style><path d="M94.4,46.8c-0.5-0.9-1.3-1.5-2.4-1.2c0.4-0.1,3.4,2.7,0.8,5.8c-0.7,0.8-1.5,1.5-2.4,1.9c-9.2,3.5-15.1-7.3-21.5-11.7  c-4.9-3.4-11.8-4.9-16.7-0.7c-0.9,0.8-1.6,1.6-2.1,2.6c-0.5-1-1.2-1.8-2.1-2.6c-5-4.2-11.8-2.7-16.7,0.7C24.8,46,18.9,56.9,9.7,53.3  c-1-0.4-1.8-1.1-2.4-1.9c-2.6-3.1,0.3-5.9,0.8-5.8c-1-0.3-1.9,0.3-2.4,1.2c-0.6,1.1-0.6,2.4-0.3,3.6c1.3,4.9,6.5,8,11,9.6  c4.7,1.7,9.9,2,14.9,1.5c1-0.1,2.1-0.3,3.1-0.4c1.9-0.4,3.9-0.9,5.8-1.6c-0.8,1.6-2.4,2.9-4.6,4.1c7.8-1.3,12.1-4.7,14.4-12.2  c2.3,7.6,6.7,10.9,14.4,12.2c-2.2-1.2-3.8-2.5-4.6-4.1c1.9,0.7,3.8,1.3,5.8,1.6c1,0.2,2.1,0.3,3.1,0.4c5,0.5,10.2,0.1,14.9-1.5  c4.5-1.6,9.7-4.6,11-9.6C95,49.2,94.9,47.9,94.4,46.8z"></path></svg>